<svg width="80" height="80" viewBox="0 0 80 80" fill="none" xmlns="http://www.w3.org/2000/svg">
<path d="M13.333 21.6569C13.333 20.8394 13.333 20.4306 13.4852 20.0631C13.6375 19.6955 13.9265 19.4065 14.5046 18.8284L22.1614 11.1716C22.7395 10.5935 23.0285 10.3045 23.3961 10.1522C23.7636 10 24.1724 10 24.9899 10H55.0095C55.827 10 56.2358 10 56.6033 10.1522C56.9708 10.3045 57.2599 10.5935 57.8379 11.1716L65.4948 18.8284C66.0728 19.4065 66.3619 19.6955 66.5141 20.0631C66.6664 20.4306 66.6664 20.8394 66.6664 21.6569V66C66.6664 67.8856 66.6664 68.8284 66.0806 69.4142C65.4948 70 64.552 70 62.6664 70H17.333C15.4474 70 14.5046 70 13.9188 69.4142C13.333 68.8284 13.333 67.8856 13.333 66V21.6569Z" stroke="#808080" stroke-width="2"/>
<path d="M13.333 23.3333H66.6664" stroke="#808080" stroke-width="2" stroke-linecap="round"/>
<path d="M30 36.6666C30 39.3188 31.0536 41.8623 32.9289 43.7377C34.8043 45.6131 37.3478 46.6666 40 46.6666C42.6522 46.6666 45.1957 45.6131 47.0711 43.7377C48.9464 41.8623 50 39.3188 50 36.6666" stroke="#808080" stroke-width="2" stroke-linecap="round"/>
</svg>
