<svg width="24" height="24" viewBox="0 0 24 24" fill="none" xmlns="http://www.w3.org/2000/svg">
<path d="M14.5 21V16C14.5 15.4477 14.0523 15 13.5 15H10.5C9.94772 15 9.5 15.4477 9.5 16V21" stroke="#33363F" stroke-width="2" stroke-linecap="round" stroke-linejoin="round"/>
<path d="M5 11V17C5 18.8856 5 19.8284 5.58579 20.4142C6.17157 21 7.11438 21 9 21H15C16.8856 21 17.8284 21 18.4142 20.4142C19 19.8284 19 18.8856 19 17V11" stroke="#33363F" stroke-width="2"/>
<path d="M4.62139 4.51493C4.80328 3.78737 4.89422 3.42359 5.16548 3.21179C5.43675 3 5.81172 3 6.56167 3H17.4385C18.1885 3 18.5635 3 18.8347 3.21179C19.106 3.42359 19.1969 3.78737 19.3788 4.51493L20.5824 9.32938C20.6793 9.71675 20.7277 9.91044 20.717 10.0678C20.6893 10.4757 20.4161 10.8257 20.027 10.9515C19.877 11 19.6727 11 19.2642 11C18.731 11 18.4645 11 18.2406 10.9478C17.6134 10.8017 17.0949 10.3625 16.8476 9.76781C16.7594 9.55555 16.7165 9.29856 16.6309 8.78457C16.6069 8.64076 16.5949 8.56886 16.5813 8.54994C16.5414 8.49439 16.4588 8.49439 16.4189 8.54994C16.4053 8.56886 16.3933 8.64076 16.3693 8.78457L16.2878 9.27381C16.2792 9.32568 16.2748 9.35161 16.2705 9.37433C16.094 10.3005 15.2947 10.9777 14.3521 10.9995C14.329 11 14.3027 11 14.2501 11C14.1975 11 14.1712 11 14.1481 10.9995C13.2055 10.9777 12.4062 10.3005 12.2297 9.37433C12.2254 9.35161 12.221 9.32568 12.2124 9.27381L12.1309 8.78457C12.1069 8.64076 12.0949 8.56886 12.0813 8.54994C12.0414 8.49439 11.9588 8.49439 11.9189 8.54994C11.9053 8.56886 11.8933 8.64076 11.8693 8.78457L11.7878 9.27381C11.7792 9.32568 11.7748 9.35161 11.7705 9.37433C11.594 10.3005 10.7947 10.9777 9.85211 10.9995C9.82899 11 9.8027 11 9.75012 11C9.69754 11 9.67125 11 9.64813 10.9995C8.70553 10.9777 7.90618 10.3005 7.72972 9.37433C7.72539 9.35161 7.72107 9.32568 7.71242 9.27381L7.63088 8.78457C7.60691 8.64076 7.59493 8.56886 7.58134 8.54994C7.54144 8.49439 7.4588 8.49439 7.4189 8.54994C7.40531 8.56886 7.39333 8.64076 7.36936 8.78457C7.28369 9.29856 7.24086 9.55555 7.15261 9.76781C6.90536 10.3625 6.38687 10.8017 5.75963 10.9478C5.53575 11 5.26917 11 4.73603 11C4.32749 11 4.12321 11 3.97318 10.9515C3.58415 10.8257 3.3109 10.4757 3.28319 10.0678C3.27251 9.91044 3.32093 9.71675 3.41777 9.32938L4.62139 4.51493Z" stroke="#33363F" stroke-width="2"/>
</svg>
